<?xml version="1.0" encoding="UTF-8" standalone="no"?>
<!-- Created with Inkscape (http://www.inkscape.org/) -->

<svg
   width="38.358871mm"
   height="42.214729mm"
   viewBox="0 0 38.358871 42.214729"
   version="1.1"
   id="svg45435"
   inkscape:version="1.1 (1:1.1+202106031931+af4d65493e)"
   sodipodi:docname="org-mode-logo.svg"
   xmlns:inkscape="http://www.inkscape.org/namespaces/inkscape"
   xmlns:sodipodi="http://sodipodi.sourceforge.net/DTD/sodipodi-0.dtd"
   xmlns="http://www.w3.org/2000/svg"
   xmlns:svg="http://www.w3.org/2000/svg">
  <sodipodi:namedview
     id="namedview45437"
     pagecolor="#ffffff"
     bordercolor="#666666"
     borderopacity="1.0"
     inkscape:pageshadow="2"
     inkscape:pageopacity="0.0"
     inkscape:pagecheckerboard="0"
     inkscape:document-units="mm"
     showgrid="false"
     fit-margin-top="0"
     fit-margin-left="0"
     fit-margin-right="0"
     fit-margin-bottom="0"
     inkscape:zoom="1.1616723"
     inkscape:cx="263.84378"
     inkscape:cy="-36.585189"
     inkscape:window-width="1600"
     inkscape:window-height="835"
     inkscape:window-x="0"
     inkscape:window-y="0"
     inkscape:window-maximized="1"
     inkscape:current-layer="layer1" />
  <defs
     id="defs45432" />
  <g
     inkscape:label="Capa 1"
     inkscape:groupmode="layer"
     id="layer1"
     transform="translate(-73.120404,-186.61029)">
    <path
       fill="#a04d32"
       stroke="#000000"
       stroke-width="0.79375"
       d="m 110.43954,202.34135 c -0.0542,-0.83344 -0.75194,-1.15517 -1.58565,-0.56224 -1.91029,-0.34316 -3.78486,-0.18177 -4.70958,-0.25956 -2.02724,-0.28389 -3.71501,-1.35678 -3.71501,-1.35678 0.24659,-0.32782 0.12858,-1.03637 -1.454682,-1.08506 -0.43551,-0.1434 -0.88265,-0.3511 -1.30519,-0.52361 0.14393,-0.30294 -0.0352,-0.75035 -0.0352,-0.75035 0.64426,-0.1778 0.74295,-1.01653 0.48895,-1.51051 0.82179,0.0222 0.69109,-1.2483 0.57758,-1.68831 0.64426,-0.24421 0.7329,-1.01362 0.46646,-1.62163 0.77735,-0.17753 0.79957,-1.08849 0.7329,-1.73249 0.799832,-0.0445 0.688972,-1.44383 0.688972,-1.73276 0.68898,-0.44423 0.5334,-1.04404 0.64162,-1.7391 0.42466,-0.8599 -0.15267,-1.10411 -0.55986,-0.18786 -0.43683,0.79402 -0.997482,1.14062 -0.992192,1.7272 0.19976,0.33311 -1.48828,0.8218 -0.95514,1.86585 -0.37783,0.46646 -1.26603,1.06627 -0.95039,1.78144 -0.16033,0.35083 -1.29328,1.17289 -0.80459,1.95024 -1.06627,0.71093 -1.00277,0.88238 -0.77735,1.53273 -0.30348,0.19473 -0.6133,0.49265 -0.79243,0.81862 -0.34925,-0.41487 -0.68871,-1.17184 -0.68368,-2.19445 0,-0.86651 -1.61396,0.0841 -1.61396,1.79493 0,0.14711 -0.0148,0.28072 -0.0354,0.40799 -0.55827,0.0643 -1.25704,0.18706 -2.13784,0.39529 -0.028,0.0193 -0.0415,0.0492 -0.0482,0.0836 a 2.3029333,2.3029333 0 0 1 -0.0733,-0.41089 c -0.15399,-1.00278 -1.30545,-2.52942 -1.86716,-0.644 -0.28999,0.69083 -0.46038,1.16205 -0.5596,1.53167 v 0 c 0,0 -0.0889,0.0598 -0.2532,0.1614 -0.69321,0.42915 -0.94245,1.769 -3.45943,2.61488 -0.84958,0.28548 -1.95792,0.51461 -3.429,0.63367 -2.53206,0.20453 -7.37844,4.581 -7.70308,8.75692 -0.0749,1.04881 0.082,3.63458 0.95144,5.90285 l 10e-4,0.005 c 0.004,0.0111 0.008,0.0214 0.0127,0.0323 0.0138,0.0355 0.0273,0.0706 0.0413,0.10531 0.0741,0.18997 0.15319,0.37174 0.2368,0.54557 0.49874,1.06574 1.18004,2.00818 2.09921,2.61461 a 6.6812582,6.6812582 0 0 0 1.15675,0.73078 c 1.5629,2.57942 4.87945,5.88751 11.13235,3.93144 9.59247,-2.72097 14.886252,3.65363 15.496112,4.10104 0.89932,0.90832 -2.32463,-7.89384 -9.151142,-11.85015 -4.03569,-2.20187 -1.5023,-5.9944 -1.21311,-7.33372 0,0 3.23506,2.26403 5.57926,-1.19592 2.117732,0.54557 3.536692,-0.38682 5.357822,0.27252 1.10701,0.48498 5.75998,0.19209 4.03092,-2.40877 1.08744,-0.70987 1.20227,-0.48022 1.74625,-1.56104 0.2921,-1.31022 -0.37121,-1.59067 -0.57335,-1.94892 z m -18.598352,-3.51869 c -0.0109,0.005 -0.0228,0.0106 -0.0331,0.0148 0.0103,-0.009 0.0198,-0.0164 0.0304,-0.027 z m -3.54886,1.19671 c -0.0193,0.1135 -0.0378,0.21934 -0.0561,0.32173 0.01,-0.22013 0.0225,-0.4535 0.0378,-0.70009 0.006,0.1151 0.0132,0.23919 0.0183,0.37836 z m 2.82919,-1.67561 c 0.19738,0.29739 0.43974,0.57653 0.43974,0.57653 0,0 -0.23151,-0.20902 -0.43974,-0.57653 z"
       id="path117" />
    <path
       fill="#77aa99"
       stroke="#000000"
       stroke-width="0.132292"
       d="m 76.850418,217.7364 c 0,0 2.65113,9.55278 12.31609,6.52991 9.59247,-2.72097 14.886252,3.65363 15.496122,4.10104 0.89932,0.90832 -2.32463,-7.89384 -9.151142,-11.85015 -4.03569,-2.20187 -1.50231,-5.9944 -1.21312,-7.33372 0,0 3.23506,2.26403 5.57927,-1.19592 2.117722,0.54557 3.536692,-0.38682 5.357812,0.27252 1.10702,0.48498 5.75998,0.19209 4.03093,-2.40877 1.08744,-0.70987 1.20227,-0.48022 1.74625,-1.56104 0.29236,-1.31022 -0.37095,-1.59041 -0.57309,-1.94892 -0.0542,-0.83344 -0.75194,-1.15517 -1.58565,-0.56224 -1.91029,-0.34316 -3.78486,-0.18177 -4.70958,-0.25956 -2.02724,-0.28389 -3.71501,-1.35678 -3.71501,-1.35678 0.24659,-0.32782 0.12858,-1.03637 -1.454682,-1.08506 -0.86969,-0.28627 -1.78647,-0.82973 -2.45745,-0.83661 -0.67919,0 -0.771,-0.67125 -0.771,-0.67125 -0.42492,-0.23018 -1.03822,-1.125 -1.03187,-2.49713 0,-0.86651 -1.61343,0.0841 -1.61343,1.79493 0,1.7108 -1.53935,2.05264 -1.53935,2.05264 0,0 -0.67469,-0.60352 -0.75538,-1.57639 -0.15399,-1.00277 -1.30546,-2.52942 -1.86717,-0.644 -0.85354,2.02301 -0.92207,2.49503 -1.08876,3.48033 -0.3466,2.04021 -0.0913,2.11985 -0.0913,2.11985 l -8.68468,6.19918 z"
       id="path119" />
    <path
       fill="#314b49"
       stroke="#314b49"
       stroke-width="0.198437"
       stroke-linecap="round"
       stroke-linejoin="round"
       d="m 97.398488,201.48569 c 0.40984,-0.1487 0.23734,-0.1098 0.30507,-0.15373 -0.78317,0.15214 -2.54926,0.16246 -3.78804,-0.29977 0.10372,0.0609 0.67945,0.25453 0.75274,0.29845 0.0577,0.18918 0.0265,0.38047 0.77576,0.71676 0.67707,0.20981 1.54649,0.12197 1.80842,-0.13997 0.0288,-0.44555 0.0333,-0.28178 0.14632,-0.42174 z"
       id="path121" />
    <path
       fill="#314b49"
       stroke="#314b49"
       stroke-width="0.132292"
       d="m 105.96279,206.5514 c -0.74877,-0.55166 -1.29143,-0.0699 -1.71185,-0.10927 0.26194,-0.17066 0.99562,-0.54557 2.18175,-0.54557 0.66993,0 1.02632,0.58102 1.47373,0.58393 0.30163,0.002 1.18322,-0.45244 1.35996,-0.62918 -0.25665,0.22172 0.12012,0.46435 -0.12965,0.79455 -0.0743,0.095 -0.22119,0.39978 -0.70432,0.54266 -0.54239,0.25691 -1.43166,0.46619 -2.46962,-0.63712 z"
       id="path123" />
    <path
       fill="#314b49"
       d="m 89.678478,196.51152 c 0,0 -0.88768,2.11561 0.0826,4.0558 0.97023,1.94019 0.13811,-1.80684 1.24037,-1.1012 0.89879,0.10187 -0.63156,-0.85063 -0.5379,-2.06877 -0.0466,-0.76518 -0.46831,-1.37425 -0.78502,-0.88583 z m 17.040232,6.98077 c 0,0.2966 -0.36063,0.5371 -0.80566,0.5371 0.94536,-0.2966 -0.0532,-1.2311 -0.80566,-0.5371 0,-0.2966 0.36063,-0.53711 0.80566,-0.53711 0.44503,0 0.80566,0.24051 0.80566,0.53711 z"
       id="path125"
       style="stroke-width:0.264583" />
    <path
       fill="#314b49"
       d="m 105.3516,202.8086 c 0.99801,-0.0611 1.6764,0.0855 1.46474,0.83027 0.14499,-0.29792 0.34184,-0.74877 -0.27676,-0.9279 -0.46196,-0.10266 -0.87312,-0.10001 -1.18798,0.0976 z"
       id="path127"
       style="stroke-width:0.264583" />
    <path
       fill="#a04d32"
       stroke="#000000"
       stroke-width="0.132292"
       d="m 91.000598,208.47095 c 0,-0.9316 -0.39952,-1.896 -1.86266,-3.85842 -0.4326,-0.57996 -0.69321,-1.14723 -0.84958,-1.66026 -0.37068,-0.8718 -0.90646,-2.12169 -0.16219,-4.55956 0,0 0.16404,-0.1016 0,0 -0.69321,0.42915 -0.94244,1.769 -3.45943,2.61488 -0.84957,0.28548 -1.95791,0.51461 -3.429,0.63367 -2.53153,0.20453 -7.37817,4.581 -7.70281,8.75692 -0.0749,1.04881 0.082,3.63458 0.95144,5.90285 l 0.001,0.005 c 0.004,0.0111 0.008,0.0214 0.0127,0.0323 0.0138,0.0355 0.0273,0.0706 0.0413,0.10531 0.0741,0.18997 0.15319,0.37174 0.2368,0.54557 0.49874,1.06574 1.18004,2.00818 2.09921,2.61461 0.81597,0.63606 1.48325,0.87471 1.48325,0.87471 -0.68474,-0.94668 -0.99748,-2.00078 -0.59875,-3.25966 0.17198,0.6977 0.5035,1.10119 0.96467,1.26391 -0.16272,-0.49847 -0.21881,-0.93901 0,-1.23058 0.67918,1.78171 1.41631,2.38946 2.16164,2.82734 -0.69585,-1.30016 -1.06653,-2.64716 -0.99748,-4.05791 0.67972,1.5949 1.7452,2.63128 2.794,3.69199 -1.00012,-1.5785 -1.82853,-3.20251 -1.84599,-5.03925 0.44794,0.73501 1.04113,1.30492 1.74625,1.74651 -0.4453,-0.71675 -0.66278,-1.45785 -0.59876,-2.22858 1.17052,1.30836 2.4765,1.7481 3.79201,2.12883 -1.37504,-0.95911 -2.60429,-1.99416 -3.25966,-3.32634 0.78634,0.38735 1.57374,0.44794 2.36167,0.36592 -0.98055,-0.4953 -1.34144,-1.38959 -1.53009,-2.39501 1.36975,1.39674 2.80115,2.33548 4.25715,3.09351 -1.4433,-1.39171 -2.50772,-2.81781 -3.05991,-4.29101 0.55563,0.31221 1.09987,0.45932 1.62983,0.39926 -0.73183,-0.82656 -0.91678,-1.63566 -1.11416,-2.44502 0.69771,1.03611 1.31207,1.59332 1.87934,1.87934 -0.57944,-1.18587 -0.53816,-2.23097 -0.13309,-3.193 0.66781,0.44318 1.29699,1.13639 1.8296,2.46142 0.19314,-0.63129 -0.11827,-1.68381 -0.49901,-2.794 0.57547,0.16457 1.26445,0.88662 2.16165,2.62784 -0.0873,-1.02261 -0.56568,-2.05713 -1.09723,-3.0935 0.8009,0.92868 1.99946,3.36364 1.79599,2.86014 z"
       id="path129" />
    <path
       fill="#796958"
       stroke="#000000"
       stroke-width="0.132292"
       d="m 95.324158,198.13686 c 0,0 -0.0667,1.97696 1.77721,0.68871 0.95514,0.0222 0.53313,-1.02182 0.53313,-1.02182 0.64426,-0.1778 0.74295,-1.01653 0.48895,-1.51051 0.8218,0.0222 0.69109,-1.2483 0.57759,-1.68831 0.64426,-0.24421 0.73289,-1.01362 0.46646,-1.62163 0.77734,-0.17753 0.79957,-1.08849 0.73289,-1.73249 0.799842,-0.0445 0.688982,-1.44383 0.688982,-1.73276 0.68897,-0.44423 0.5334,-1.04404 0.64161,-1.7391 0.42466,-0.8599 -0.15266,-1.10411 -0.55985,-0.18786 -0.43683,0.79402 -0.997482,1.14062 -0.992192,1.7272 0.19976,0.33311 -1.48828,0.8218 -0.95515,1.86585 -0.37782,0.46646 -1.26603,1.06627 -0.95038,1.78144 -0.16034,0.35083 -1.29328,1.17289 -0.8046,1.95024 -1.06627,0.71093 -1.00277,0.88238 -0.77735,1.53273 -0.57017,0.36513 -1.16681,1.09299 -0.8673,1.68831 z"
       id="path131" />
    <path
       fill="#ffffff"
       d="m 100.04009,188.80685 c 0,0 -0.194462,0.35031 -0.194462,0.56436 0,0.21405 0.578112,0.15028 0.774432,-0.0601 -0.42995,0.006 -0.784492,0.0765 -0.57997,-0.5043 z m -1.127392,1.65894 c 0,0 -0.21484,0.28258 -0.0484,0.61278 0.10371,0.25929 0.74268,0.25453 0.939,0.0442 -0.42995,0.006 -1.09537,-0.0759 -0.89059,-0.65696 z m -0.82946,1.70789 c 0,0 -0.26406,0.35613 -0.13018,0.68844 0,0.21405 0.75089,0.25294 0.94721,0.0426 -0.42995,0.006 -0.96441,-0.12938 -0.81703,-0.73104 z m -0.81439,1.89494 c 0,0 -0.37095,0.40799 -0.0392,0.7792 0.38047,0.21405 0.9906,0.013 1.18692,-0.19738 -0.42995,0.006 -1.29487,0.0201 -1.1475,-0.58182 z m -0.79481,1.51368 c 0,0 -0.41672,0.37413 -0.005,0.8763 0.38047,0.21405 1.20914,0.0524 1.40546,-0.15795 -0.42968,0.006 -1.58485,-0.35613 -1.40017,-0.71835 z m -0.83264,1.78356 c 0,0 -0.37121,0.40799 -0.0397,0.7792 0.38073,0.21405 1.59729,-0.0492 1.79361,-0.25956 -0.42995,0.006 -1.90103,0.0823 -1.75419,-0.51964 z"
       id="path133"
       style="stroke-width:0.264583" />
    <path
       fill="#a04d32"
       stroke="#000000"
       stroke-width="0.132292"
       d="m 95.345858,198.16702 c -0.11907,-0.11906 -0.14129,-0.23707 -0.0971,-0.45456 0,0 0.0976,-1.08664 -4.32144,-0.0418 -0.28363,0.19579 0.63395,1.24936 0.63395,1.24936 0,0 0.11059,0.0569 0.27702,-0.1098 0.0669,0.29713 0.22542,1.07977 0.0616,1.21153 0.32941,-0.204 0.49424,-0.51488 0.44344,-1.09141 0.56145,0.12197 0.99008,0.43392 1.24143,0.99986 0.0804,-0.37041 0.15954,-0.74057 -0.1016,-1.09167 0.57732,0.0754 1.02658,0.39582 1.4187,0.82656 0.0582,-0.24686 0.0937,-0.49821 0,-0.77549 0.36777,0.12514 0.68447,0.42518 0.9816,0.79057 0,0 0.0556,-1.02182 -0.53763,-1.51315 z"
       id="path135" />
    <path
       opacity="0.26"
       d="m 91.106698,205.48169 c 0,0 1.78859,3.59569 4.65535,3.70179 2.86649,0.10609 2.86649,-0.72232 2.86649,-0.72232 0,0 -4.10818,0.80645 -7.5221,-2.97947 z m 0.83476,2.0357 c 0.60299,0.82127 1.28482,1.38139 2.04312,1.68857 0,0 -1.94866,2.939 -0.95542,5.29776 0.99325,2.35876 3.47266,2.92444 6.17009,5.62213 2.101582,2.10132 4.539982,6.60426 4.539982,6.60426 0,0 -4.718582,-3.75073 -7.784042,-3.56632 0,0 -0.71093,-2.55799 -2.80061,-4.64767 -2.97498,-2.97524 -4.27779,-6.84609 -1.21312,-10.99873 z"
       id="path137"
       style="stroke-width:0.264583" />
    <path
       opacity="0.18"
       fill="#ffffff"
       d="m 86.975758,200.27178 c -1.02499,0.66172 -2.22779,1.87748 -6.4598,2.13863 -4.51115,1.79493 -7.25831,7.0604 -6.291,10.7061 0.35666,1.93595 1.02923,3.75179 1.02923,3.75179 -0.23415,-1.56607 -0.36539,-3.01546 0.27385,-3.59807 0.37967,0.63077 0.78554,0.65299 1.19247,0.6559 -0.42068,-0.63606 -0.47307,-1.27212 0,-1.90817 0.39397,0.40349 0.79164,0.49768 1.19248,0.35798 -0.56303,-0.64797 -0.49398,-1.2827 0,-1.90791 0.36724,1.32873 1.18057,1.97194 2.02724,2.56355 -0.5842,-1.14644 -1.10226,-2.29447 -0.77523,-3.45811 0.35004,0.19288 0.68659,0.17039 1.01335,0 -0.33231,-0.41698 -0.24447,-0.83423 0,-1.25201 0.77999,0.80434 1.64412,0.98531 2.50455,1.19248 -0.70406,-0.64929 -1.46659,-1.19777 -1.78885,-2.50428 0.39688,-0.47916 0.86492,-0.71041 1.43087,-0.59611 -0.50298,-0.30877 -0.43657,-0.67283 0,-1.07341 0.55271,0.2921 1.10992,0.35771 1.66952,0.29818 -0.74269,-0.4445 -2.22885,-1.32133 2.98159,-5.36654 z"
       id="path139"
       style="stroke-width:0.264583" />
    <path
       opacity="0.27"
       fill="#ffffff"
       d="m 94.003358,195.2828 c 0.26353,-0.2548 0.30321,-0.17198 0.22595,0.0754 -0.25982,0.62442 0.0934,1.22952 0.21088,1.64201 l -1.0242,0.0302 c 0.0286,-0.60087 0.0653,-1.26841 0.58737,-1.74757 z"
       id="path141"
       style="stroke-width:0.264583" />
  </g>
</svg>
